<svg width="66" height="33" viewBox="0 0 66 33" fill="none" xmlns="http://www.w3.org/2000/svg">
<path d="M19.9909 14.2183L19.6384 16.9933C19.5409 16.9858 19.3909 16.9783 19.2034 16.9783C18.4684 16.9783 17.8309 17.1733 17.2759 17.5708C16.7284 17.9683 16.3759 18.4783 16.2184 19.1008L15.3484 23.5408H12.3784L14.1784 14.3383H17.1484L16.8634 15.7633C17.6734 14.7283 18.7159 14.2183 19.9834 14.2183H19.9909Z" fill="#113979"/>
<path d="M11.2009 12.531C11.8984 13.1235 12.2509 13.9635 12.2509 15.0435C12.2509 16.1235 12.0184 17.0535 11.5534 17.856C11.0884 18.6585 10.4284 19.2885 9.55844 19.731C8.68844 20.1735 7.66094 20.3985 6.47594 20.3985H4.39844L3.73843 23.766H0.648438L3.01844 11.646H8.18594C9.49094 11.646 10.4959 11.946 11.2009 12.5385V12.531ZM8.55343 17.106C8.96593 16.7085 9.17593 16.176 9.17593 15.4935C9.17593 15.051 9.03344 14.706 8.75594 14.466C8.47844 14.226 8.07344 14.106 7.55594 14.106H5.65844L4.95344 17.6985H6.85094C7.57094 17.6985 8.14093 17.5035 8.55343 17.106Z" fill="#113979"/>
<path d="M22.6985 23.5335H19.7285L21.5285 14.331H24.476L22.691 23.5335H22.6985ZM24.7985 10.4085C25.0385 10.656 25.151 10.9785 25.151 11.3835C25.151 11.9235 24.9635 12.381 24.5885 12.7485C24.2135 13.1235 23.756 13.311 23.216 13.311C22.8185 13.311 22.5035 13.191 22.271 12.9435C22.0385 12.696 21.9185 12.3735 21.9185 11.9685C21.9185 11.4285 22.106 10.971 22.481 10.6035C22.856 10.2285 23.3135 10.041 23.8385 10.041C24.2435 10.041 24.566 10.161 24.7985 10.4085Z" fill="#113979"/>
<path d="M65.4034 12.141C65.2309 11.8635 64.9384 11.6535 64.6309 11.571C64.5559 11.5485 64.4809 11.5335 64.4134 11.526C64.3759 11.526 64.3384 11.5185 64.3009 11.5185C64.2709 11.5185 58.0684 11.5335 54.2959 11.541L52.1359 1.911C52.0684 1.6185 51.8959 1.3335 51.6634 1.161C51.4384 0.988502 51.1609 0.883502 50.8534 0.891002C50.5909 0.891002 50.3284 0.973501 50.1034 1.116C49.8859 1.251 49.6984 1.461 49.5784 1.6935C49.5259 1.806 46.2109 9.951 45.5509 11.571L45.5134 11.646C45.5134 11.646 45.4609 11.706 45.4309 11.721L45.3634 11.736C45.2284 11.736 31.5634 12.2385 27.2509 12.441C27.0634 12.4485 26.9209 12.606 26.9209 12.7935C26.9209 12.8835 26.9584 12.9735 27.0259 13.041L27.1609 13.1385H27.2734C31.6384 13.0935 45.3859 12.8835 45.3859 12.8835C45.4459 12.8835 45.4984 12.8835 45.5659 12.8685C45.6859 12.8535 45.8059 12.816 45.9109 12.7635C46.1284 12.666 46.3159 12.5085 46.4584 12.3135C46.4959 12.261 46.5259 12.216 46.5559 12.1635C46.5859 12.111 46.6084 12.051 46.6234 12.021L50.6284 2.8185C50.6884 2.6835 50.8834 2.706 50.9134 2.8485L52.8559 12.021C52.9309 12.3285 53.1109 12.6135 53.3659 12.801C53.4859 12.891 53.6284 12.966 53.7784 13.011C53.8534 13.0335 53.9284 13.0485 53.9959 13.0635L63.3184 13.086C63.4684 13.086 63.5209 13.2735 63.4009 13.3635L55.3384 18.936C55.2259 19.011 55.1284 19.1085 55.0309 19.2135C54.8509 19.431 54.7234 19.6935 54.6784 19.9635C54.6559 20.1135 54.6484 20.2635 54.6709 20.4135C54.6709 20.4285 54.6709 20.4585 56.8534 30.2385L56.8159 30.2685L49.2409 25.0485C49.1884 25.011 49.1209 24.9735 49.0609 24.9435C48.9409 24.8835 48.8059 24.8535 48.6634 24.8385C48.4084 24.816 48.1459 24.8685 47.9209 24.9885C47.8684 25.0185 47.8084 25.056 47.7634 25.086L39.1084 31.236C39.0559 31.2735 39.0109 31.296 38.9659 31.296C38.9359 31.296 38.8984 31.296 38.8684 31.2735C38.8459 31.2585 38.8234 31.2285 38.8084 31.1985C38.7934 31.161 38.8009 31.116 38.8084 31.086C38.8534 30.9735 40.3159 27.246 41.0809 25.2885C41.1409 25.131 41.0734 24.9585 40.9234 24.891C40.8484 24.8535 40.7584 24.8535 40.6759 24.876L40.5409 24.9435L38.0134 30.606C37.9909 30.6585 37.9684 30.711 37.9384 30.786C37.8559 31.011 37.8484 31.2585 37.9159 31.476C37.9834 31.7085 38.1334 31.9185 38.3359 32.061C38.5159 32.1885 38.7409 32.256 38.9584 32.256C38.9734 32.256 38.9959 32.256 39.0109 32.256C39.2209 32.256 39.4459 32.1735 39.6409 32.0385L48.5434 26.076L48.3559 25.8885V25.9935L56.0284 31.506C56.0734 31.5435 56.1484 31.5885 56.2084 31.6185C56.3434 31.686 56.4859 31.731 56.6359 31.7535C56.9059 31.791 57.1909 31.746 57.4459 31.6185C57.6859 31.4985 57.8809 31.3335 58.0309 31.116C58.1884 30.8835 58.2859 30.606 58.3009 30.3285C58.3009 30.261 58.3009 30.186 58.3009 30.126C58.3009 30.096 58.3009 30.0735 58.2859 30.006L56.2009 20.2485L64.9309 14.241L65.0134 14.181C65.0134 14.181 65.0659 14.1435 65.0809 14.1285C65.1859 14.0385 65.2834 13.9335 65.3584 13.821C65.7184 13.3185 65.7334 12.636 65.4034 12.126V12.141Z" fill="#F7C14E"/>
<path d="M50.8532 14.7586C51.5357 15.1111 52.0682 15.6136 52.4357 16.2586C52.8032 16.9036 52.9907 17.6536 52.9907 18.5161C52.9907 19.5361 52.7582 20.4436 52.2932 21.2386C51.8282 22.0336 51.1757 22.6486 50.3432 23.0911C49.5107 23.5336 48.5657 23.7511 47.5082 23.7511C46.5857 23.7511 45.7832 23.5711 45.0932 23.2186C44.4032 22.8661 43.8782 22.3636 43.5032 21.7111C43.1357 21.0661 42.9482 20.3086 42.9482 19.4461C42.9482 18.4261 43.1807 17.5186 43.6457 16.7236C44.1107 15.9286 44.7557 15.3211 45.5882 14.8786C46.4132 14.4436 47.3583 14.2261 48.4308 14.2261C49.3533 14.2261 50.1558 14.4061 50.8458 14.7586H50.8532ZM46.6157 17.4286C46.2032 17.9086 45.9933 18.5386 45.9933 19.3036C45.9933 19.9111 46.1507 20.3986 46.4657 20.7736C46.7807 21.1486 47.2007 21.3361 47.7332 21.3361C48.3707 21.3361 48.9032 21.0961 49.3157 20.6161C49.7282 20.1361 49.9382 19.5061 49.9382 18.7411C49.9382 18.1336 49.7807 17.6461 49.4657 17.2711C49.1507 16.8961 48.7307 16.7086 48.1982 16.7086C47.5607 16.7086 47.0282 16.9486 46.6157 17.4286Z" fill="#113979"/>
<path d="M40.9683 15.0436C41.5233 15.5911 41.8008 16.3186 41.8008 17.2111C41.8008 17.5411 41.7708 17.8336 41.7183 18.0961L40.6533 23.5411H37.6833L38.6508 18.5386C38.6883 18.3661 38.7033 18.2161 38.7033 18.0811C38.7033 17.6836 38.5833 17.3686 38.3508 17.1361C38.1183 16.9036 37.7958 16.7911 37.3833 16.7911C36.8958 16.7911 36.4533 16.9861 36.0558 17.3686C35.6583 17.7511 35.4033 18.2536 35.2833 18.8686L34.3683 23.5486H31.3983L32.3808 18.5461C32.4108 18.3886 32.4333 18.2386 32.4333 18.1036C32.4333 17.6986 32.3133 17.3761 32.0808 17.1436C31.8483 16.9111 31.5258 16.7986 31.1133 16.7986C30.6108 16.7986 30.1683 16.9936 29.7708 17.3761C29.3733 17.7586 29.1183 18.2611 28.9983 18.8761L28.0833 23.5561H25.1133L26.8983 14.3536H29.8683L29.6358 15.5761C30.3558 14.6836 31.2933 14.2336 32.4333 14.2336C33.1908 14.2336 33.8283 14.4136 34.3458 14.7661C34.8633 15.1261 35.2083 15.6136 35.3883 16.2361C36.2808 14.9011 37.3908 14.2261 38.7258 14.2261C39.6708 14.2261 40.4208 14.5036 40.9758 15.0511L40.9683 15.0436Z" fill="#113979"/>
</svg>
